HIERARCHY
ROOT Hips
{
  OFFSET -33.9132 29.2015 117.021
  CHANNELS 6 Xposition Yposition Zposition Zrotation Xrotation Yrotation
  JOINT LeftUpLeg
  {
    OFFSET 8.64259 1.95398 -2.38835
    CHANNELS 3 Zrotation Xrotation Yrotation
    JOINT LeftLeg
    {
      OFFSET 43.7702 0 0
      CHANNELS 3 Zrotation Xrotation Yrotation
      JOINT LeftFoot
      {
        OFFSET 40.6238 0 0
        CHANNELS 3 Zrotation Xrotation Yrotation
        JOINT LeftToeBase
        {
          OFFSET 12.7242 0 0
          CHANNELS 3 Zrotation Xrotation Yrotation
          End Site
          {
            OFFSET 0 0 0
          }
        }
      }
    }
  }
  JOINT RightUpLeg
  {
    OFFSET -8.2249 1.95398 -2.59336
    CHANNELS 3 Zrotation Xrotation Yrotation
    JOINT RightLeg
    {
      OFFSET 43.5653 0 0
      CHANNELS 3 Zrotation Xrotation Yrotation
      JOINT RightFoot
      {
        OFFSET 40.6238 0 0
        CHANNELS 3 Zrotation Xrotation Yrotation
        JOINT RightToeBase
        {
          OFFSET 12.7242 0 0
          CHANNELS 3 Zrotation Xrotation Yrotation
          End Site
          {
            OFFSET 0 0 0
          }
        }
      }
    }
  }
  JOINT Spine
  {
    OFFSET 0.165834 0.87714 6.61349
    CHANNELS 3 Zrotation Xrotation Yrotation
    JOINT Spine1
    {
      OFFSET 7.38963 1.71661e-005 0
      CHANNELS 3 Zrotation Xrotation Yrotation
      JOINT Spine2
      {
        OFFSET 11.9445 1.14441e-005 0
        CHANNELS 3 Zrotation Xrotation Yrotation
        JOINT Spine3
        {
          OFFSET 14.7254 4.19617e-005 0
          CHANNELS 3 Zrotation Xrotation Yrotation
          JOINT Spine4
          {
            OFFSET 10.9679 0 0
            CHANNELS 3 Zrotation Xrotation Yrotation
            JOINT RightShoulder
            {
              OFFSET 2.46616 -1.6653 3.69651
              CHANNELS 3 Zrotation Xrotation Yrotation
              JOINT RightArm
              {
                OFFSET 13.0012 0 0
                CHANNELS 3 Zrotation Xrotation Yrotation
                JOINT RightForeArm
                {
                  OFFSET 28.7848 1.62311e-005 0
                  CHANNELS 3 Zrotation Xrotation Yrotation
                  JOINT RightHand
                  {
                    OFFSET 26.5688 1.62095e-005 0
                    CHANNELS 3 Zrotation Xrotation Yrotation
                    End Site
                    {
                      OFFSET 0 0 0
                    }
                  }
                }
              }
            }
            JOINT LeftShoulder
            {
              OFFSET 2.38034 -1.29275 -3.7523
              CHANNELS 3 Zrotation Xrotation Yrotation
              JOINT LeftArm
              {
                OFFSET 16.3182 6.07031e-005 0
                CHANNELS 3 Zrotation Xrotation Yrotation
                JOINT LeftForeArm
                {
                  OFFSET 27.0901 0 0
                  CHANNELS 3 Zrotation Xrotation Yrotation
                  JOINT LeftHand
                  {
                    OFFSET 24.5451 1.51738e-005 0
                    CHANNELS 3 Zrotation Xrotation Yrotation
                    End Site
                    {
                      OFFSET 0 0 0
                    }
                  }
                }
              }
            }
            JOINT Neck
            {
              OFFSET 5.0226 -0.0266342 0
              CHANNELS 3 Zrotation Xrotation Yrotation
              JOINT Head
              {
                OFFSET 6.69364 2.86102e-005 0
                CHANNELS 3 Zrotation Xrotation Yrotation
                End Site
                {
                  OFFSET 0 0 0
                }
              }
            }
          }
        }
      }
    }
  }
}
MOTION
Frames:	7
Frame Time:	0.0416667
-97.9464 92.1798 69.8432 -91.2765 -50.7142 -78.0973 -154.052 -43.2048 170.39 -20.7482 7.32023 0.6398 76.1687 -35.235 64.468 143.974 0.346177 -62.8919 175.896 29.9309 106.747 -36.9829 -9.0905 4.54746 66.0972 -3.98649 -2.07192 24.1384 0.800617 4.58885 -1.21322 7.76467 -92.112 11.2708 -3.3973 -3.87049 -0.400999 -3.56423 -3.71737 -22.906 -2.07849 -4.7111 -2.89335 -2.07847 -4.71109 91.4687 -30.7298 -103.591 38.6569 11.6944 6.79579 -4.63399 -30.7801 -5.1147 -10.2398 0.376711 -9.91532 -90.7542 -50.1239 77.6275 -34.3948 -14.6918 -21.4763 6.61536 26.1847 -27.0858 31.0046 -12.1501 -40.0099 5.35307 1.21618 -9.13252 -5.49695 2.87208 0.568515 
-97.7261 89.8429 75.4625 -94.9406 -49.6453 -83.3079 -154.553 -44.6724 167.21 -29.2447 34.3828 0.825039 59.1454 -53.6427 58.6618 143.294 -0.881505 -64.6245 174.559 31.8022 103.014 -50.4055 -12.7199 4.00532 70.8659 -6.36444 -3.96878 21.7455 1.56392 5.36803 -0.657953 7.9407 -91.7377 10.9512 -2.11404 -3.25663 -0.721877 -2.25524 -3.16055 -23.2287 -1.03834 -3.74077 -3.21606 -1.03834 -3.74078 90.7943 -30.4474 -105.021 40.9494 10.5545 4.39268 -4.55292 -29.2007 -5.08205 -10.191 0.430957 -10.5618 -91.2668 -50.8412 77.0343 -27.1063 -10.3369 -15.9507 -5.44142 21.0007 -10.2067 14.0227 -4.07278 -30.0205 8.16341 1.6847 -3.3071 -5.16877 2.31318 1.54092 
-95.4337 89.1954 79.4873 -96.1036 -49.995 -85.605 -161.782 -40.0128 161.544 -46.972 54.3152 4.12564 36.6157 -62.5043 29.9168 143.623 0.0543613 -63.3691 175.106 32.1621 98.2137 -54.5105 -13.5622 3.82713 72.9399 -6.31391 -3.06369 22.1156 1.57418 4.84217 -0.0332658 8.05979 -91.4178 10.7377 -0.719941 -2.7551 -0.935839 -0.840457 -2.72079 -23.4477 0.141022 -2.84405 -3.43509 0.141002 -2.84406 91.0529 -27.3159 -105.65 45.5548 7.81052 -0.748328 -4.33695 -24.7929 -5.00725 -15.7608 0.496952 -8.99438 -90.5421 -50.4051 78.0082 -23.5173 -14.0902 -18.1539 -8.87501 40.1642 0.885096 23.7563 -3.46824 -16.406 8.83464 1.69743 2.23123 -4.88573 1.1374 3.16799 
-96.6662 92.3005 84.2288 -98.5086 -50.5005 -93.0293 -161.91 -39.5914 157.073 -42.2507 47.0119 3.66068 26.0944 -60.3231 12.0468 143.032 0.252448 -63.3295 177.383 25.5469 90.5942 -50.6557 -14.6565 1.77563 72.1147 -3.75383 -2.40619 25.4737 -0.23444 6.38586 0.453234 8.15163 -90.6803 10.5779 0.590034 -1.39975 -1.09363 0.527869 -1.42437 -23.6258 0.98344 -1.15775 -3.61312 0.983441 -1.15775 92.3617 -24.7043 -103.855 47.6782 5.61906 -5.58215 -4.02909 -18.0199 -4.93063 -19.0605 0.530855 -8.60349 -89.5631 -50.6817 79.5231 -21.3536 -19.3188 -8.27755 -6.49962 31.9088 -0.511589 19.4923 -1.9693 -12.7499 3.05538 0.892696 4.73324 -4.43298 -0.00976714 4.82811 
-101.756 98.0246 89.5447 -101.201 -47.7296 -100.853 -142.799 -48.6831 163.204 -6.82115 33.7453 0.479425 3.89847 -66.2196 -1.43578 144.657 0.950445 -61.9245 179.247 17.844 86.6359 -45.8662 -15.6036 -3.14178 63.3611 5.65528 1.08978 21.6709 0.79459 7.92798 1.00755 8.26656 -89.707 10.3429 2.14145 0.39537 -1.32625 2.15677 0.300699 -23.8733 1.92359 1.0209 -3.86061 1.92359 1.0209 93.1013 -23.2456 -102.762 50.7253 3.53579 -7.89856 -3.91125 -15.3071 -4.91382 -23.545 1.15522 -10.8375 -88.6429 -48.6295 80.4943 -15.366 -17.0224 1.08947 -5.96772 32.464 -2.70081 17.8971 -1.39657 -10.473 -4.26524 0.0561874 3.94582 -5.60481 -0.40471 2.84561 
-106.696 101.75 94.2929 -98.7084 -42.6861 -101.357 -137.737 -53.9531 158.794 -1.50357 34.6762 0.0191785 12.8407 -80.7278 8.79038 146.882 1.61454 -60.4348 178.293 18.9892 85.7388 -48.415 -14.5093 -3.23048 61.2237 6.69559 2.41238 19.1689 2.30081 6.36086 1.55743 8.28128 -89.1311 10.2901 3.50042 1.42422 -1.37674 3.55967 1.26862 -23.9337 2.91054 2.41089 -3.92108 2.91055 2.41088 92.687 -22.0129 -104.167 50.9577 2.91333 -9.42623 -4.1515 -20.775 -4.9577 -22.0205 2.03117 -15.953 -87.9052 -43.152 80.5434 -14.7189 -8.04144 7.97447 -7.77226 32.2549 -4.78728 14.442 -1.51515 -13.2982 -5.6073 0.658473 4.07311 -5.52221 0.231099 2.29382 
-110.912 102.787 98.888 -96.1317 -39.2711 -98.4641 -134.288 -55.6493 156.891 -2.21531 34.5021 -0.041424 118.676 -82.11 113.896 148.889 2.59717 -58.7312 175.601 21.5551 87.7309 -47.3024 -14.1153 0.624432 59.0151 6.04237 5.18994 25.3459 0.651613 3.34833 1.65893 8.21768 -89.2427 10.4215 3.65172 1.1833 -1.24472 3.70027 1.02124 -23.8077 3.12722 2.22686 -3.79504 3.12723 2.22686 91.8415 -22.4774 -105.895 49.0019 3.27797 -11.2068 -4.27373 -23.4492 -4.98937 -23.48 2.00618 -15.1405 -87.8562 -45.7565 81.1476 -12.1645 -2.08251 14.1528 -9.97961 32.2072 -5.11797 12.5132 -2.14507 -19.3597 -4.98878 1.5614 7.31464 -4.04325 0.809364 3.63891 
